<?xml version="1.0" encoding="UTF-8"?>
<svg id="Ebene_1" data-name="Ebene 1" xmlns="http://www.w3.org/2000/svg" viewBox="0 0 1920.22 952.19">
  <defs>
    <style>
      .cls-1, .cls-2 {
        fill: none;
      }

      .cls-2 {
        stroke: #000;
        stroke-miterlimit: 10;
        stroke-width: 11px;
      }
    </style>
  </defs>
  <g>
    <path d="M73.92,806.53h50.35c11.14,0,20.33,1.29,27.56,3.88,7.23,2.59,12.9,5.97,17.01,10.15,4.11,4.18,6.96,8.82,8.56,13.93,1.59,5.11,2.39,10.12,2.39,15.03,0,9.15-1.66,16.85-4.98,23.08-3.32,6.24-8.89,11.48-16.72,15.72l28.85,60.3h-32.04l-23.88-53.33h-27.86v53.33h-29.25v-142.09ZM126.26,870.6c4.64,0,8.49-.5,11.54-1.49,3.05-.99,5.47-2.39,7.26-4.18s3.02-3.95,3.68-6.47c.66-2.52,1-5.3,1-8.36,0-2.52-.4-4.94-1.19-7.26-.8-2.32-2.16-4.38-4.08-6.17-1.92-1.79-4.58-3.18-7.96-4.18-3.38-1-7.66-1.49-12.84-1.49h-20.5v39.6h23.08Z"/>
    <path d="M233.72,806.53h29.85v56.91l52.34-56.91h32.44l-47.16,53.33,52.34,88.75h-33.03l-40-69.45-16.92,17.31v52.14h-29.85v-142.09Z"/>
    <path d="M472.12,806.53h35.62l35.42,106.07,36.42-106.07h34.63v142.09h-27.26v-94.72l-32.44,94.72h-23.08l-32.64-94.53v94.53h-26.67v-142.09Z"/>
    <path d="M713.9,806.53h28.26l53.33,142.09h-31.84l-11.34-32.83h-49.75l-11.34,32.83h-30.65l53.33-142.09ZM744.55,891.3l-17.31-50.94-17.11,50.94h34.43Z"/>
    <path d="M841.86,806.53h50.35c11.14,0,20.33,1.29,27.56,3.88,7.23,2.59,12.9,5.97,17.01,10.15,4.11,4.18,6.96,8.82,8.56,13.93,1.59,5.11,2.39,10.12,2.39,15.03,0,9.15-1.66,16.85-4.97,23.08-3.32,6.24-8.89,11.48-16.72,15.72l28.85,60.3h-32.04l-23.88-53.33h-27.86v53.33h-29.25v-142.09ZM894.2,870.6c4.64,0,8.49-.5,11.54-1.49,3.05-.99,5.47-2.39,7.26-4.18s3.02-3.95,3.68-6.47c.66-2.52,1-5.3,1-8.36,0-2.52-.4-4.94-1.19-7.26-.8-2.32-2.16-4.38-4.08-6.17-1.92-1.79-4.58-3.18-7.96-4.18s-7.66-1.49-12.83-1.49h-20.5v39.6h23.08Z"/>
    <path d="M1001.66,806.53h29.85v56.91l52.34-56.91h32.44l-47.16,53.33,52.34,88.75h-33.03l-40-69.45-16.92,17.31v52.14h-29.85v-142.09Z"/>
    <path d="M1165.83,806.53h96.91v25.27h-67.26v31.04h63.28v25.47h-63.28v35.02h71.44l-2.99,25.27h-98.11v-142.09Z"/>
    <path d="M1350.1,832.2h-42.78v-25.67h115.42v25.67h-42.79v116.42h-29.85v-116.42Z"/>
    <path d="M1471.09,806.53h29.65v142.09h-29.65v-142.09Z"/>
    <path d="M1559.65,806.53h26.67l58.51,93.13v-93.13h28.85v142.09h-26.47l-58.71-92.34v92.34h-28.85v-142.09Z"/>
    <path d="M1798.05,870.8h54.53v60.1c-7.3,6.77-15.99,12.01-26.07,15.72-10.08,3.71-20.5,5.57-31.24,5.57-11.28,0-21.13-1.79-29.55-5.37-8.43-3.58-15.42-8.62-20.99-15.12-5.57-6.5-9.75-14.36-12.54-23.58-2.79-9.22-4.18-19.4-4.18-30.55s1.52-21.89,4.58-31.04c3.05-9.15,7.39-16.98,13.03-23.48,5.64-6.5,12.5-11.47,20.6-14.92,8.09-3.45,17.11-5.17,27.06-5.17,9.15,0,17.01,1.13,23.58,3.38,6.57,2.26,12.14,5.37,16.72,9.35,4.58,3.98,8.22,8.62,10.95,13.93,2.72,5.31,4.68,11.01,5.87,17.11l-29.45,3.78c-.8-3.58-1.76-6.73-2.89-9.45-1.13-2.72-2.75-5.04-4.88-6.96-2.12-1.92-4.78-3.38-7.96-4.38-3.18-1-7.16-1.49-11.94-1.49-11.54,0-20.17,4.31-25.87,12.93-5.71,8.62-8.56,20.76-8.56,36.42s2.89,27.96,8.66,36.52c5.77,8.56,15.16,12.83,28.16,12.83,6.23,0,11.64-.63,16.22-1.89,4.58-1.26,8.99-3.22,13.23-5.87v-23.68h-27.06v-24.68Z"/>
  </g>
  <rect class="cls-2" x="607.31" y="121.44" width="588" height="588"/>
  <rect x="791.18" y="398.5" width="126.5" height="126.5"/>
  <rect class="cls-2" x="723.1" y="5.5" width="588" height="588"/>
  <rect class="cls-2" x="665.39" y="63.2" width="588" height="588"/>
  <line class="cls-1" y1="741.2" x2="1920" y2="742.28"/>
</svg>